<svg width="131" height="112" viewBox="0 0 131 112" fill="none" xmlns="http://www.w3.org/2000/svg">
    <style>
        .letters {
            opacity: 0;
            transform: translateY(50px) rotate(-10deg);
            animation: letterAppear 0.8s forwards;
        }
        
        /* Появление */
        @keyframes letterAppear {
            0% {
                opacity: 0;
                transform: translateY(50px) rotate(-10deg);
            }
            60% {
                opacity: 1;
                transform: translateY(-10px) rotate(5deg);
            }
            100% {
                opacity: 1;
                transform: translateY(0) rotate(0deg);
            }
        }
  
        
        /* Задержка появления каждой буквы */
        .b { animation-delay: 0s }
        .a { animation-delay: 0.1s }
        .k { animation-delay: 0.2s }
        .e { animation-delay: 0.3s }
        .r { animation-delay: 0.4s }
        .s { animation-delay: 0.5s }
        
        
    </style>
    <path d="M126.804 86.6926C126.685 84.589 126.067 82.816 125.211 81.3234C127.132 79.4502 128.118 76.6754 127.989 73.4299C127.74 67.3194 122.603 62.8117 115.753 62.7115C113.105 62.6514 110.676 63.3025 108.645 64.4946C108.246 64.1039 107.828 63.7333 107.37 63.4027C106.882 63.0521 106.385 62.7616 105.867 62.5112C107.609 60.4376 109.71 56.9416 109.61 53.9465C109.571 52.7043 109.182 51.5424 108.515 50.5807C111.651 49.5189 112.726 47.2149 113.085 45.5521C113.563 43.3583 112.926 41.1646 111.382 39.692C110.088 38.4599 108.286 37.8789 106.514 38.0893C106.424 37.7587 106.305 37.4282 106.146 37.0976C105.419 35.5349 104.075 34.3629 102.372 33.7919C102.293 33.7619 102.203 33.7418 102.114 33.7118C99.8537 33.0907 97.544 33.6817 95.9411 35.2945C95.5429 35.6952 95.1844 36.146 94.7961 36.8572C94.7862 36.8572 94.7763 36.8572 94.7663 36.8572C94.4776 36.8472 94.0395 36.8271 93.5019 36.8472C94.4676 35.9356 95.3537 34.8838 96.1003 33.6918C97.9521 30.7567 99.6844 25.8884 97.3548 19.3372C95.284 13.5072 90.0871 10.492 85.3581 9.42015C83.4167 6.77561 79.6335 3.53005 72.7541 3.5C69.3392 3.5 66.6213 4.36148 64.3912 5.49342C58.2386 3.2095 50.1744 4.02089 44.4 11.103C39.4918 17.1133 39.1832 25.3074 41.3336 30.6265C41.1744 30.6265 41.0251 30.6365 40.8757 30.6566C36.4155 31.0973 31.8956 33.8921 29.3668 37.7788C27.2761 40.9843 26.7286 44.6105 27.8138 47.9963C27.8536 48.1265 27.8933 48.2467 27.9431 48.3669C24.9564 50.2301 23.0748 53.4156 22.796 56.9617C18.5648 55.8698 13.8856 56.4508 10.6799 56.8515C9.6345 56.9817 8.64887 57.1019 7.81258 57.172C5.9409 57.3223 4.28822 58.4742 3.49175 60.1872C2.69529 61.9001 2.87454 63.9136 3.96967 65.4562C4.45751 66.1374 4.55703 66.7384 4.74619 68.7819L5.11455 72.5083C5.73181 78.6288 6.42873 85.5707 6.56811 91.3205C6.59798 92.5126 6.37897 93.3841 6.26945 93.6245C5.47299 95.3074 5.62234 97.2808 6.65774 98.8234C7.08584 99.4545 7.64336 99.9654 8.27057 100.356C8.14115 100.867 8.05151 101.408 8.05151 101.999C8.05151 103.451 8.58915 106.156 12.1832 107.949C13.4277 108.57 14.8712 108.66 16.1854 108.22C19.6201 107.048 37.3812 105.385 66.0936 105.385C94.8061 105.385 112.567 107.037 116.002 108.22C116.549 108.41 117.117 108.5 117.684 108.5C118.481 108.5 119.277 108.32 120.004 107.959C123.598 106.166 124.136 103.461 124.136 102.009C124.136 100.186 123.499 98.7533 122.254 97.5913C125.41 95.077 127.063 91.2003 126.814 86.7327L126.804 86.6926Z" fill="transparent" stroke="transparent" stroke-width="5.25" stroke-miterlimit="10"/>
    <path class="b letters" d="M29.5563 87.1629C29.9844 83.0158 28.491 78.1073 24.0408 77.1257C27.1768 74.4711 28.1226 70.6846 26.7089 66.7679C23.981 59.2049 14.2344 61.9096 8.20117 62.3804C9.67463 64.4539 9.74429 66.4073 9.98323 68.8515C10.6702 75.8535 11.5961 84.2078 11.7753 91.1497C11.825 92.9528 11.5164 94.6858 10.9788 95.8377C17.3903 95.437 28.6602 95.8678 29.5662 87.1528L29.5563 87.1629ZM23.2144 88.1546C22.0795 89.9977 19.7698 90.3483 17.7985 90.4785C17.3904 90.5086 17.5396 90.4785 17.4998 90.188L16.7133 80.261C16.7133 80.261 19.1326 79.9705 20.1779 80.1208C23.4633 80.5916 24.7974 85.5802 23.2144 88.1546ZM21.6613 70.0535C22.0396 73.8701 20.0087 75.8134 16.3151 75.9336L15.7178 66.5676C18.6448 65.9265 21.3228 66.7178 21.6613 70.0535Z" fill="#633510"/>
    <path class="k letters" d="M58.5774 82.5141C59.125 82.5141 59.4038 82.9448 59.4038 82.9448L64.6703 91.6097C64.9292 92.1406 65.4171 92.391 66.8905 92.371C68.6627 92.351 71.7688 92.371 71.7688 92.371L63.1272 78.978L70.6936 66.727L66.2434 66.6269C65.1582 66.6269 64.531 66.9374 64.2522 67.3882L57.9502 78.397L57.8805 63.9523C57.9104 62.6 57.7511 61.4881 56.656 61.2276C55.5509 60.9672 50.7124 61.1976 50.7124 61.1976C52.4348 63.3212 51.9767 65.545 52.0365 68.0092C52.1858 74.0796 52.4646 80.2803 52.4248 86.3306C52.4148 88.4042 52.4049 90.3976 51.8872 92.4011L58.6272 92.361C58.3683 91.6998 58.1693 90.5879 58.0996 89.6563C58.0199 88.6146 58.0697 83.4056 58.0796 82.5542C58.0796 82.5542 58.2788 82.5141 58.5874 82.5141H58.5774Z" fill="#633510"/>
    <path class="a letters" d="M31.9058 83.818C30.4623 89.5979 34.3649 94.366 40.3683 92.7332C41.6227 92.3927 42.5883 91.5512 43.6237 90.83C43.9125 91.6314 44.699 92.4828 46.2023 92.4828H50.0652C50.0652 92.4828 50.1846 89.9284 49.8262 88.9768C49.6669 88.536 48.6216 88.3157 48.4822 87.5443C47.0485 79.6608 50.9711 65.6468 38.6658 66.5183C34.8627 66.7888 31.6072 69.5134 32.0452 73.6004C32.2941 75.9645 34.9921 76.6857 37.0032 76.2049C36.9833 74.4519 36.7941 70.9058 39.6713 70.9459C41.7919 70.9759 41.8715 73.5303 42.1403 75.083C38.4268 76.8961 33.0109 79.4204 31.9058 83.818ZM42.3395 79.4705L42.6481 86.4525C41.8417 88.1654 38.9844 89.1271 37.8196 87.3039C35.7289 84.0584 39.6315 80.6525 42.3395 79.4705Z" fill="#633510"/>
    <path class="e letters" d="M88.3652 74.6711C89.4802 65.5955 77.2845 63.2515 73.0433 70.8044C68.6628 78.5878 69.9371 94.6954 82.2623 92.4315C87.3995 91.4899 91.3221 83.1656 83.4371 82.9553C83.7258 88.3645 77.5831 89.9072 76.926 84.0872C80.3906 81.8133 87.7778 79.4292 88.3652 74.6711ZM83.1086 74.3605C82.6506 76.0033 78.28 78.2171 76.707 78.9784C76.6274 76.7747 77.165 72.6776 79.2657 71.4956C81.436 70.2835 83.7557 71.9965 83.0986 74.3605H83.1086Z" fill="#633510"/>
    <path class="s letters" d="M113.484 75.7134C112.936 72.568 116.56 71.7365 117.397 73.6999C118.123 75.4329 117.576 78.2677 117.576 78.2677C121.04 79.1092 122.922 77.1959 122.783 73.6398C122.494 66.2872 108.536 65.5059 107.889 74.6315C107.461 80.6017 112.538 81.8038 115.196 85.4801C118.621 90.2182 111.403 92.7425 110.866 87.8842C110.736 86.7523 110.975 84.1378 110.975 84.1378C107.959 83.7171 105.689 85.2196 105.719 88.5053C105.778 97.1802 122.205 98.0617 121.598 86.9727C121.279 81.2328 114.111 79.3095 113.494 75.7033L113.484 75.7134Z" fill="#633510"/>
    <path class="r letters" d="M106.215 75.5137C108.595 69.874 103.039 63.7435 97.7827 68.4716C97.4342 68.7922 97.0658 69.3732 96.8269 69.4032C96.7871 67.5801 95.5825 67.1594 94.119 67.0993C92.7948 67.0392 90.2163 67.0091 90.2163 67.0091C90.3358 67.1894 91.2915 67.8305 91.2816 70.2847C91.2816 70.2847 91.2218 72.8391 91.2119 74.0612C91.1522 78.8895 91.1521 84.0183 90.8336 88.8165C90.7639 89.9484 90.6145 92.1522 90.286 92.9736L96.9365 93.3342C96.4685 92.4627 96.3988 90.4393 96.3888 89.4476C96.3391 85.4708 96.5382 78.8594 96.817 74.8726C96.9165 73.5002 97.9718 71.5068 99.7141 71.9576C101.934 72.5286 100.501 77.7475 100.421 78.0781C104.722 78.589 105.817 76.4152 106.195 75.5237L106.215 75.5137Z" fill="#633510"/>
    <path d="M31.4574 63.4436C39.4818 67.0798 48.8402 57.7839 41.7716 51.1425C40.0791 49.5497 35.3302 47.2859 35.0116 45.022C34.5437 41.7263 38.526 38.4908 41.5227 38.2403C45.3357 37.9198 44.6986 41.8666 42.4187 43.5995C41.3933 44.3809 39.9198 44.1605 39.9795 45.5329C40.0393 46.8251 41.3833 46.6448 42.3191 46.3743C47.3667 44.9118 49.0692 35.105 41.3634 35.8663C36.6543 36.3271 31.1289 41.2956 32.7616 46.3643C34.3446 51.3128 43.1555 51.6433 41.4928 57.9241C40.1886 62.8626 29.516 63.4936 30.5216 57.0426C30.9298 54.4481 33.4984 54.5984 33.7672 53.7369C34.3645 51.8337 32.0548 52.014 30.8302 52.7152C26.6786 55.1093 27.1366 61.4902 31.4474 63.4536L31.4574 63.4436Z" fill="#633510"/>
    <path d="M66.084 96.1992C36.9136 96.1992 13.2686 98.7837 13.2686 101.969C13.2686 102.4 13.6966 102.811 14.5031 103.211C19.7 101.428 40.8261 100.106 66.0939 100.106C91.3616 100.106 112.478 101.438 117.685 103.211C118.491 102.811 118.919 102.4 118.919 101.969C118.919 98.7837 95.2742 96.1992 66.1038 96.1992H66.084Z" fill="#633510"/>
    <path d="M91.6303 43.4276C91.6303 43.4477 91.6303 43.4777 91.6402 43.4977C91.6701 43.6179 91.8095 43.9285 92.3969 43.9485C93.1236 43.9685 93.7907 43.8984 94.5175 43.9986C94.5274 43.9986 94.5373 43.9986 94.5473 43.9986C94.5672 43.9986 94.5771 43.9986 94.5971 43.9986C95.3437 44.1188 96.2398 44.2791 97.1259 44.4995C97.1458 44.4995 97.1557 44.4995 97.1756 44.5095L97.4146 44.5696L97.4743 44.5896C97.4245 44.7599 97.3747 44.9302 97.3249 45.1005C96.4886 47.9754 95.5528 50.7702 95.5528 50.7702C94.6568 53.545 93.4323 56.1294 90.8338 57.622C88.1756 59.1446 84.5517 59.2748 84.0539 55.6586C86.8615 55.5484 90.7044 54.4165 92.1679 51.7819C95.1048 46.5129 89.6491 44.1489 85.4577 47.0739C81.7442 49.6683 82.1424 54.6969 77.8216 57.2313C75.3426 58.6838 71.5893 58.5836 71.3504 55.0576C74.2475 54.9574 77.4134 54.126 79.086 51.5816C82.1325 46.9436 78.2198 43.5679 73.5904 46.0221C71.1413 47.3143 69.9466 49.5682 68.8415 51.9923L66.2431 52.0424C66.9798 50.1291 68.6026 44.4494 65.7552 43.7281C62.2508 42.8366 61.4942 47.2943 62.211 49.9087C62.43 50.7201 63.2165 51.6617 63.326 52.1726C63.6446 53.6151 58.159 60.587 57.5915 55.5885C57.2829 52.8538 58.6169 50.66 58.8061 48.316C58.9355 46.7032 57.6213 46.0221 56.6357 47.1039C56.118 47.6649 55.003 51.4414 54.3161 52.6935C53.8083 53.6151 50.4731 59.0143 49.368 56.5702C48.3923 54.4265 51.6777 49.4379 52.0262 47.0338C52.4045 44.4093 50.4432 43.2273 48.1733 44.5596C47.2972 45.0704 44.4499 48.336 45.9731 48.877C47.4466 49.4079 48.0638 45.9419 49.7762 46.1323C48.6612 49.7985 45.6446 53.7453 47.0782 57.7422C47.8348 59.8558 50.264 59.8257 51.9665 58.794C53.4897 57.8724 54.7242 56.3698 55.3514 55.0676C55.3415 63.5121 63.4256 58.814 65.138 53.9757L68.3935 53.9457C68.7021 62.0996 77.4433 61.719 81.6944 56.6603C82.3316 59.9159 85.2187 61.1079 88.0661 60.7974C88.1159 60.7974 88.1657 60.7874 88.2254 60.7774C88.9323 60.6672 89.5794 60.4969 90.1767 60.2865C92.7851 59.3449 94.2785 57.6119 94.5573 57.2814C94.6867 61.2382 98.1812 62.4502 101.238 59.8157C102.631 58.6137 105.27 54.3163 104.145 53.4648C102.631 52.8938 101.775 55.6686 101.138 56.7505C100.282 58.213 97.2653 60.6271 97.0064 57.4717C96.6878 53.4648 99.7143 45.2207 99.7143 45.2207C99.8139 45.2507 99.9931 45.3008 100.192 45.3509C100.272 45.371 100.352 45.391 100.431 45.411C100.561 45.4411 100.7 45.4711 100.849 45.5012C101.218 45.5713 101.576 45.6414 101.925 45.6915C104.304 46.0521 107.609 46.1924 107.998 44.4293C108.197 43.5078 107.54 43.1772 107.002 43.3275C106.673 43.4076 106.345 43.638 105.419 43.7181C105.379 43.7181 105.339 43.7281 105.3 43.7281C105.21 43.7281 105.1 43.7281 104.981 43.7382C104.881 43.7382 104.772 43.7382 104.652 43.7382C103.159 43.7281 102.034 43.5679 100.421 43.1572C100.61 42.6563 100.809 42.1354 100.969 41.7347C101.367 40.6629 102.094 39.2104 100.73 38.7596C100.501 38.6995 100.003 38.6194 99.6247 38.99C99.2763 39.3406 98.7088 40.7731 98.1115 42.5862L98.002 42.5561C96.2099 42.2055 94.5572 42.0853 94.5274 42.0853C92.9643 42.0152 91.5207 42.2256 91.6303 43.4176V43.4276ZM90.2265 48.6365C91.8593 50.8003 86.0849 54.2061 84.0937 53.5951C83.9344 51.5616 88.6137 46.5129 90.2265 48.6365ZM77.3736 47.9153C79.3349 49.7885 73.4012 53.9056 71.3902 52.984C71.3404 51.0507 75.5517 46.1723 77.3736 47.9153ZM64.5904 49.9288C63.5749 49.4079 63.9731 45.6715 64.8492 45.6715C65.1479 45.6715 65.2475 46.3727 65.2574 46.6932C65.3172 47.7851 64.9289 48.907 64.5904 49.9388V49.9288Z" fill="#633510"/>
    <path d="M53.1215 35.1238C53.1215 35.1238 52.1359 39.7617 52.0861 40.2626C52.0363 40.6833 52.0562 40.9137 52.3649 41.084C52.7233 41.2743 53.231 40.9538 53.2908 40.9337C53.3405 40.9137 53.3405 40.9137 53.3405 40.9137C56.0684 39.912 64.033 37.8484 76.1293 41.8853C76.2388 41.9254 76.5076 42.0356 76.7764 41.9955C76.9158 41.9755 77.085 41.9354 77.2443 41.8252C77.5928 41.5848 77.6923 41.2643 77.7421 41.0539C77.7421 40.9738 77.7621 40.9037 77.772 40.8235C77.8218 40.4829 77.8716 40.1524 77.9512 39.8519C78.5187 37.578 80.2908 36.5462 83.3074 36.2557C87.4192 35.865 95.8815 30.8064 92.4269 21.0897C90.7941 16.5118 85.876 14.4784 82.1127 14.2179C81.4955 12.7254 79.3052 8.76858 72.7145 8.73852C69.2499 8.71849 66.8605 9.94058 64.6304 11.3931C61.0264 9.23938 53.7786 7.847 48.4125 14.4183C44.46 19.2666 44.7886 26.1384 46.481 29.3739C48.6016 33.4208 53.1116 35.1338 53.1116 35.1338L53.1215 35.1238ZM75.2532 39.4211C71.4999 38.0287 62.2908 35.3842 53.6591 38.9904C53.8483 37.9586 54.0573 37.007 54.2863 36.1255C59.1348 32.6996 66.1237 33.3607 70.0364 34.112C70.0364 34.112 74.4966 36.9869 75.7709 37.1673L75.2631 39.4111L75.2532 39.4211ZM46.3416 25.6074C46.2321 25.1667 46.1525 24.7359 46.1027 24.3252C45.6348 19.9177 48.502 14.5184 52.9025 12.3647C57.7907 9.98065 63.0972 12.3647 63.0972 12.3647V12.4248C61.9424 13.2062 60.7775 13.9875 59.4633 14.6286C58.3483 15.1695 57.4124 15.3599 56.6458 15.3398C56.3472 15.3398 56.0684 15.2898 55.8195 15.2296C55.491 15.1495 55.1625 15.1996 54.9832 15.3799C54.7941 15.5702 54.6846 16.1011 55.3715 16.3716C55.3914 16.3716 55.4213 16.3816 55.4313 16.3916C56.1083 16.612 57.0341 16.6521 58.2886 16.3416C63.2465 15.1195 65.8251 11.0425 73.3616 10.8321C74.8351 10.792 77.8019 11.0325 79.4246 12.5851C80.2609 13.3865 80.2311 14.3381 79.5143 14.3181C75.9899 14.0977 74.1182 15.42 74.1182 15.42C72.5452 16.4618 74.1182 17.6338 74.1182 17.6338C75.731 15.0193 81.7941 15.8708 82.3716 15.9609C89.2709 17.6638 90.4656 22.7626 90.4955 24.5456C90.5154 25.948 91.0928 33.0402 82.9988 34.8433C76.199 36.3559 71.5994 32.8499 70.3052 31.6979C69.5784 31.0868 69.3594 30.8364 68.8118 31.0668C68.2543 31.2972 68.5331 32.1487 68.6824 32.5293C65.5662 32.1787 62.4103 32.4592 60.8572 32.6896C57.4822 33.1804 55.4213 34.2523 54.585 34.9535C56.1381 29.6143 58.0795 27.661 58.0795 27.661C58.7166 27.6409 59.314 27.6009 59.8715 27.5307C60.0607 27.5107 60.2498 27.4907 60.429 27.4606C61.6436 27.2402 62.4999 26.6392 62.5795 26.1183C62.689 25.4372 62.1215 25.1767 61.5142 25.2468C60.7178 25.347 59.8815 25.367 58.9556 25.3169C57.512 25.2468 56.3771 24.9964 55.3815 24.5957C53.0618 23.4537 52.3748 21.1899 52.3449 21.0997C52.0064 19.7875 52.2554 18.7457 52.2554 18.7457C52.2554 18.7457 51.2797 18.8959 51.0209 20.2783C50.9213 20.7892 50.9412 21.28 51.0407 21.7408C51.3394 24.5156 55.0927 27.2002 55.0927 27.2002C53.8582 29.9449 51.3992 30.025 51.3992 30.025C49.7864 30.1152 48.7709 29.3739 47.9744 28.6326C47.1182 27.8212 46.6104 26.7594 46.3317 25.7176C46.3317 25.6876 46.3118 25.6575 46.3118 25.6275L46.3416 25.6074Z" fill="#633510"/>
    </svg>
    